<?xml version="1.0" encoding="utf-8"?>
<!-- Generator: Adobe Illustrator 23.0.3, SVG Export Plug-In . SVG Version: 6.00 Build 0)  -->
<svg version="1.1" xmlns="http://www.w3.org/2000/svg" xmlns:xlink="http://www.w3.org/1999/xlink" x="0px" y="0px" width="4000px"
	 height="900px" viewBox="0 0 4000 900" enable-background="new 0 0 4000 900" xml:space="preserve">
<g id="Inspiration" display="none">
</g>
<g id="Palette" display="none">
</g>
<g id="sketch" display="none">
</g>
<g id="_Sky">
	<rect fill="#E8F0FE" width="4000" height="819.58"/>
</g>
<g id="Clouds">
	<circle fill="#FFFFFF" cx="614.66" cy="490.81" r="102.5"/>
	<circle fill="#FFFFFF" cx="887.98" cy="428.98" r="230.4"/>
	<circle fill="#FFFFFF" cx="1165.53" cy="434.6" r="105.85"/>
	<circle fill="#FFFFFF" cx="1310.58" cy="434.6" r="77.44"/>
	<circle fill="#FFFFFF" cx="1465.07" cy="393.42" r="102.35"/>
	<circle fill="#FFFFFF" cx="1576.52" cy="369.64" r="48.51"/>
	<circle fill="#FFFFFF" cx="1654.45" cy="410.95" r="65.5"/>
	<circle fill="#FFFFFF" cx="1736.38" cy="437.2" r="48.89"/>
	<circle fill="#FFFFFF" cx="1859.52" cy="441.28" r="91.84"/>
	<circle fill="#FFFFFF" cx="2134.64" cy="349.43" r="102.68"/>
	<circle fill="#FFFFFF" cx="2251.61" cy="246.75" r="116.97"/>
	<circle fill="#FFFFFF" cx="2376.31" cy="226.14" r="39.15"/>
	<circle fill="#FFFFFF" cx="2454.62" cy="216.39" r="54.15"/>
	<circle fill="#FFFFFF" cx="2616.72" cy="256.38" r="66.92"/>
	<circle fill="#FFFFFF" cx="2737.52" cy="278.2" r="66.92"/>
	<circle fill="#FFFFFF" cx="2891.84" cy="287.21" r="121.06"/>
	<circle fill="#FFFFFF" cx="2996.14" cy="357.75" r="38.83"/>
	<circle fill="#FFFFFF" cx="3051.73" cy="402.55" r="47.45"/>
	<path fill="none" stroke="#E8F0FE" stroke-width="5" stroke-linecap="round" stroke-linejoin="round" stroke-miterlimit="10" d="
		M609.12,385.7c36.3,0,68.74,16.55,90.17,42.52"/>
	<path fill="none" stroke="#E8F0FE" stroke-width="5" stroke-linecap="round" stroke-linejoin="round" stroke-miterlimit="10" d="
		M1165.53,325.86c45.86,0,85.06,28.89,100.79,69.34"/>
	<path fill="none" stroke="#E8F0FE" stroke-width="5" stroke-linecap="round" stroke-linejoin="round" stroke-miterlimit="10" d="
		M1095.8,323.77c7.27,14.49,13.07,29.85,17.21,45.88"/>
	<path fill="none" stroke="#E8F0FE" stroke-width="5" stroke-linecap="round" stroke-linejoin="round" stroke-miterlimit="10" d="
		M1540.95,320.83c6.68,7.07,12.81,15.91,17.34,24.62"/>
	<path fill="none" stroke="#E8F0FE" stroke-width="5" stroke-linecap="round" stroke-linejoin="round" stroke-miterlimit="10" d="
		M1360.91,385.46c0.74-9.88,2.02-19.38,5.3-28.31"/>
	<path fill="none" stroke="#E8F0FE" stroke-width="5" stroke-linecap="round" stroke-linejoin="round" stroke-miterlimit="10" d="
		M1621.26,344.92c3.92,7.21,6.14,15.94,6.14,24.73"/>
	<path fill="none" stroke="#E8F0FE" stroke-width="5" stroke-linecap="round" stroke-linejoin="round" stroke-miterlimit="10" d="
		M1717.31,384.06c2.46,5.74,3.59,12.45,4.4,18.87"/>
	<path fill="none" stroke="#E8F0FE" stroke-width="5" stroke-linecap="round" stroke-linejoin="round" stroke-miterlimit="10" d="
		M1770.77,409.25c2.95-8.04,7.36-17.06,12.26-23.91"/>
	<path fill="none" stroke="#E8F0FE" stroke-width="5" stroke-linecap="round" stroke-linejoin="round" stroke-miterlimit="10" d="
		M2130.89,244.04c13.38,0,29.93,2.04,41.72,6.57"/>
	<path fill="none" stroke="#E8F0FE" stroke-width="5" stroke-linecap="round" stroke-linejoin="round" stroke-miterlimit="10" d="
		M2344.94,199.09c7.76-8.7,18.78-14.91,31.36-14.91"/>
	<path fill="none" stroke="#E8F0FE" stroke-width="5" stroke-linecap="round" stroke-linejoin="round" stroke-miterlimit="10" d="
		M2398.34,216.39c0-18.77,8.47-35.42,22.48-45.78"/>
	<path fill="none" stroke="#E8F0FE" stroke-width="5" stroke-linecap="round" stroke-linejoin="round" stroke-miterlimit="10" d="
		M2664,205.5c13.55,12.62,22.03,30.62,22.03,50.6"/>
	<path fill="none" stroke="#E8F0FE" stroke-width="5" stroke-linecap="round" stroke-linejoin="round" stroke-miterlimit="10" d="
		M2767.97,287.21c0-32.11,13.16-61.62,33.06-83.75"/>
	
		<path fill="none" stroke="#E8F0FE" stroke-width="5.098" stroke-linecap="round" stroke-linejoin="round" stroke-miterlimit="10" d="
		M3015.27,287.21c0,17.36-3.58,33.87-10.05,48.86"/>
	
		<path fill="none" stroke="#E8F0FE" stroke-width="5.3733" stroke-linecap="round" stroke-linejoin="round" stroke-miterlimit="10" d="
		M3037.68,356.89c0,6.92-1.5,14.3-4.48,20.05"/>
	<polygon fill="#AECBFA" points="841.11,393.42 1131.24,472.83 1162.79,441.28 1149.27,393.42 1263.5,443.97 1033.46,523.93 
		1230.43,654.99 1329.63,654.99 1317.01,605.09 1266.32,579.24 1244.86,547.38 1407.19,616.51 1398.77,584.65 1379.74,580.44 
		1354.28,547.98 1504.58,630.34 1602.58,654.99 1183.49,782.72 1132.96,651.75 908.14,593.31 854.52,607.4 948.36,458.9 
		914.33,476.44 896.8,434.6 876.18,434.6 	"/>
	<polyline fill="#AECBFA" points="2481.48,189.46 2839.98,325.78 3394.86,466.76 3344.11,554.68 3126.32,486.09 2792.07,445.79 
		2818.58,349.43 2578.98,311.64 2597.95,256.38 2529.78,250.61 2481.48,189.46 	"/>
</g>
<g id="Mountains">
	<polygon fill="#E8F0FE" points="619.39,512.04 841.11,393.42 876.18,434.6 896.8,434.6 914.33,476.44 948.36,458.9 854.52,607.4 
		908.14,593.31 1132.96,651.75 1183.49,782.72 853.49,861.09 	"/>
	<polygon fill="#E8F0FE" points="1149.27,393.42 1051.75,451.07 1131.24,472.83 1162.79,441.28 	"/>
	<polygon fill="#E8F0FE" points="1033.46,523.93 1263.5,443.97 1521.74,354.74 1660.19,456.02 1602.58,470.97 1904.62,558.57 
		1474.46,613.84 1354.28,547.98 1379.74,580.44 1398.77,584.65 1407.19,616.51 1244.86,547.38 1266.32,579.24 1317.01,605.09 
		1329.63,654.99 1230.43,654.99 	"/>
	<polygon fill="#AECBFA" points="1521.74,354.74 1660.19,456.02 1602.58,470.97 1945.64,574.81 1770.47,486.09 1825.95,462.95 
		1611.25,388.32 	"/>
	<polygon fill="#E8F0FE" points="1770.47,486.09 2481.48,189.46 2529.78,250.61 2597.95,256.38 2578.98,311.64 2818.58,349.43 
		2792.07,445.79 3126.32,486.09 3344.11,554.68 3314.75,673.99 2897.17,619.07 2101.78,619.07 2398.34,491.24 1945.64,574.81 	"/>
	<polygon fill="#FFFFFF" points="1244.86,547.38 1183.49,604.86 1251.42,557.12 	"/>
	<polygon fill="#FFFFFF" points="1354.28,547.98 1322.02,580.24 1328.63,583.05 1363.56,559.81 	"/>
	<polygon fill="#FFFFFF" points="1602.58,470.97 1521.74,547.98 1602.58,507.64 1595.29,486.09 1615.27,474.81 	"/>
</g>
<g id="Plants">
	<path fill="#FFFFFF" d="M769.29,683.55c0,0,4.94-37.41,47.74-68.02c0,0,14.02,17.34,11.8,40.95c0,0,10.7-19.55,21.76-21.76
		c0,0,7.38,15.86,0,36.15c0,0,7.01-7.01,21.76-7.01c0,0-0.74,13.65-12.54,28.4l-42.05,77.47L769.29,683.55z"/>
	<path fill="#FFFFFF" d="M1197.34,776.4l-11.26-27.78c41.93-22.94,121.95-63.2,169.09-71.11l96.45-12.53l95.11-23.76l-42.36-10.66
		l-30.12-16.51c0,0,77.16-32.21,293.21-43.64c0,0,115.12-37,216.06-37c0,0,198.77-9.97,404.11-37.43L2117.78,607
		c0,0,145.22-18.49,258.3-7.06c113.08,11.43,182.6-12.38,233.07-16.66c50.47-4.29,135.22,23.73,218.07,23.73
		s152.56-17.56,221.94-4.23l10.54,46.79c0,0-349.61-37.24-643.86,75.13c0,0,51.42,0.93,100.94,38.56c0,0,85.43-28.3,197.63-18.43
		c0,0,223.01-39.91,313.47,1.04l-92.18,154.37l-1752.44-0.17L1197.34,776.4z"/>
	<path fill="#FFFFFF" d="M1201.07,743.49h-2.64l8.08-2.3c-5.41-11.91-11.01-13.46-11.01-13.46c-3.14,3.78-4.86,8.29-5.79,11.92
		c-4.19-15.83-10.43-23.08-10.43-23.08c-8.3,7.49-12.42,17.06-14.48,25.02c-1.88-11.85-5.8-16.42-5.8-16.42
		c-13.61,9.72-18.75,20.65-20.67,26.9h-7.31v75.25l71.75,5.02v-80.28h-1.71V743.49z"/>
	<polyline fill="#FFFFFF" points="1213.77,741.11 1220.58,702.52 1228.56,741.11 1236.25,678.69 1246.61,726.91 1255.48,677.51 
		1266.43,720.12 	"/>
	<polygon fill="#FFFFFF" points="1297.78,699.96 1301.03,679.28 1305.47,699.96 	"/>
	<polyline fill="#FFFFFF" points="1327.06,687.19 1331.21,664.98 1340.97,690 1345.7,666.7 1355.16,687.19 	"/>
	<path fill="#FFFFFF" d="M1419.84,670.48l1.43-10.83c0.23-1.72,2.69-1.8,3.03-0.1l2.16,10.93l12.36-1.99l2.21-15.01l3.31,17
		l16.33-3.83l2.65-23.89l2.43,22.42l3.29-1.77l0.85-11.03c0.07-0.93,1.41-0.99,1.56-0.07l2.02,11.98l5.96-3.09l0.88-10.37
		l3.09,10.37"/>
	<path fill="#FFFFFF" d="M3002.99,741.3c0,0-0.78-22.27-20.31-51.56c0,0-8.2,11.72-8.2,34.38c0,0-7.42-10.94-22.27-18.36
		c0,0-6.25,7.42,6.64,39.06L3002.99,741.3z"/>
	<path fill="#FFFFFF" d="M2915.88,743.25c0,0,0.78-14.84-1.95-25.98c0,0-11.33,2.67-17.19,15.3c0,0,5.47-13.54,0-30.73
		c0,0-20.7,13.67-24.61,34.38c0,0-3.03-9.86-12.11-18.95c0,0-11.72,17.38-7.42,39.26C2856.89,778.41,2915.88,743.25,2915.88,743.25z
		"/>
	<path fill="#FFFFFF" d="M2794.81,763.7c0,0,3.1-14.2,1.14-25.53c0,0-6.19,1.95-11.75,7.51c0,0,1.14-13.38-3.43-27.75
		c0,0-13.55,2.43-21.05,14.84c0,0,2.28-4.07-4.41-18.76c0,0-15.34,10.89-13.87,30.8L2794.81,763.7z"/>
	<path fill="#FFFFFF" d="M2722.83,745.68c0,0,3.26-18.93-4.9-34.11c0,0-8.49,4.73-11.43,13.87c0,0,0.65-5.71-4.9-17.63
		c0,0-9.96,8.63-11.26,24.96c0,0,0.83-5.06-13.46-13.46c0,0-2.54,5.31-0.74,14.12c0,0-6.53-5.39-14.04-4.57
		c0,0-0.49,11.43,6.37,24.48L2722.83,745.68z"/>
	<path fill="none" stroke="#FFFFFF" stroke-width="5" stroke-miterlimit="10" d="M2784.67,775.19c0,0,27.52-24.86,42.94-73.35"/>
	<circle fill="#FFFFFF" cx="2827.6" cy="701.84" r="5.13"/>
	<circle fill="#FFFFFF" cx="2625.72" cy="695.84" r="5.13"/>
	<line fill="none" stroke="#FFFFFF" stroke-width="5" stroke-miterlimit="10" x1="2819.67" y1="722.77" x2="2836.42" y2="717.27"/>
	<line fill="none" stroke="#FFFFFF" stroke-width="5" stroke-miterlimit="10" x1="2809.55" y1="742.52" x2="2801.91" y2="726.76"/>
	<path fill="none" stroke="#FFFFFF" stroke-width="5" stroke-miterlimit="10" d="M2634.4,747.11c0,0-0.2-27.05-8.68-51.27"/>
	<line fill="none" stroke="#FFFFFF" stroke-width="5" stroke-miterlimit="10" x1="2631.78" y1="714.61" x2="2641.26" y2="703.69"/>
	<line fill="none" stroke="#FFFFFF" stroke-width="5" stroke-miterlimit="10" x1="2632.9" y1="727.71" x2="2619.06" y2="717.86"/>
	<path fill="#FFFFFF" d="M3049.16,602.77l-10.29-33.54l-9.96,42.5l-10.29-34.16l-7.64,35.49l-32.57,1.4l-14.77-59.78l-11.52,61.55
		l-8-40.47l-6.48,40.47l-21.3-3.84l-10.31-47.19l-6.5,26.8l-3.45-35.84c-0.18-1.85-2.81-2.01-3.21-0.2l-8.71,39.29l-4.14-33.68
		l-13.88,50.81l-25.7-7.39l-7.68-64.99l-8.86,64.4v32.49l198.51-5.84l30.13-14.84L3049.16,602.77z"/>
	<path fill="#FFFFFF" d="M2675.73,591.41l-6.08-42.83l-10.63,45.79l-33.93-5.03l-8.74-38.55c-0.38-1.69-2.8-1.67-3.15,0.03
		l-8.67,41.49l-22.61-4.43l-3.25-62.63l-7.68,69.13l-4.38-43.49c-0.16-1.54-2.4-1.55-2.57-0.01l-5.16,47.05l-20.09-2.36l-8.23-40.5
		l-3.54,46.49h-29.31l-5.05-35.62l-6.06,39.16l-6.02-22.58c-0.53-1.99-3.37-1.93-3.83,0.07l-5.31,23.52l-13.14-52.3l-9.09,52.3
		h-23.24l-3.28-44.72l-4.8,46.74l-7.83-4.8l-1.59-28.81c-0.07-1.22-1.81-1.35-2.07-0.16l-7.21,33.77l-6.32-57.27l-11.87,53.48
		l-18.44-5.31l-4.29-40.67l-7.58,29.31l-6.57-41.43l-7.07,38.41l-6.32-27.55l-11.62,44.21l-17.43-1.77l-4.84-25.81
		c-0.5-2.65-4.22-2.82-4.96-0.24l-7.88,27.31l-52.3-1.77l-5.05-27.03l-9.09,28.8l-4.29-21.73l-5.81,20.97h-15.92l-3.79-18.44
		l-3.03,20.72h-10.86l-3.56-17.87l-4.59,20.24l332.11,25.24l182.74-5.84L2675.73,591.41z"/>
	
		<line fill="none" stroke="#FFFFFF" stroke-width="5" stroke-linecap="round" stroke-miterlimit="10" x1="2263.12" y1="571.98" x2="2263.12" y2="603.96"/>
	
		<line fill="none" stroke="#FFFFFF" stroke-width="5" stroke-linecap="round" stroke-miterlimit="10" x1="2271.64" y1="501.14" x2="2271.64" y2="533.12"/>
	
		<line fill="none" stroke="#FFFFFF" stroke-width="5" stroke-linecap="round" stroke-miterlimit="10" x1="2261.23" y1="507.37" x2="2261.23" y2="539.35"/>
	
		<line fill="none" stroke="#FFFFFF" stroke-width="5" stroke-linecap="round" stroke-miterlimit="10" x1="2281.79" y1="501.14" x2="2281.79" y2="533.12"/>
	
		<line fill="none" stroke="#FFFFFF" stroke-width="5" stroke-linecap="round" stroke-miterlimit="10" x1="2303.68" y1="503.06" x2="2303.68" y2="517.93"/>
	
		<line fill="none" stroke="#FFFFFF" stroke-width="5" stroke-linecap="round" stroke-miterlimit="10" x1="2312.65" y1="497.43" x2="2312.65" y2="512.3"/>
	
		<line fill="none" stroke="#FFFFFF" stroke-width="5" stroke-linecap="round" stroke-miterlimit="10" x1="2324.19" y1="499.94" x2="2324.19" y2="514.81"/>
	
		<line fill="none" stroke="#FFFFFF" stroke-width="5" stroke-linecap="round" stroke-miterlimit="10" x1="2230.25" y1="508.62" x2="2230.25" y2="540.6"/>
	
		<line fill="none" stroke="#FFFFFF" stroke-width="5" stroke-linecap="round" stroke-miterlimit="10" x1="2221.69" y1="513.1" x2="2221.69" y2="545.08"/>
	
		<line fill="none" stroke="#FFFFFF" stroke-width="5" stroke-linecap="round" stroke-miterlimit="10" x1="2190.87" y1="505.7" x2="2190.87" y2="537.67"/>
	
		<line fill="none" stroke="#FFFFFF" stroke-width="5" stroke-linecap="round" stroke-miterlimit="10" x1="2182.15" y1="513.1" x2="2182.15" y2="545.08"/>
	
		<line fill="none" stroke="#FFFFFF" stroke-width="5" stroke-linecap="round" stroke-miterlimit="10" x1="2171.24" y1="511.57" x2="2171.24" y2="543.55"/>
	
		<line fill="none" stroke="#FFFFFF" stroke-width="5" stroke-linecap="round" stroke-miterlimit="10" x1="2133.33" y1="510.5" x2="2133.33" y2="542.48"/>
	
		<line fill="none" stroke="#FFFFFF" stroke-width="5" stroke-linecap="round" stroke-miterlimit="10" x1="2120.51" y1="517.13" x2="2120.51" y2="549.11"/>
	
		<line fill="none" stroke="#FFFFFF" stroke-width="5" stroke-linecap="round" stroke-miterlimit="10" x1="2108.76" y1="520.62" x2="2108.76" y2="552.6"/>
	
		<line fill="none" stroke="#FFFFFF" stroke-width="5" stroke-linecap="round" stroke-miterlimit="10" x1="2095.34" y1="520.62" x2="2095.34" y2="552.6"/>
	
		<line fill="none" stroke="#FFFFFF" stroke-width="5" stroke-linecap="round" stroke-miterlimit="10" x1="2082.46" y1="513.1" x2="2082.46" y2="545.08"/>
	
		<line fill="none" stroke="#FFFFFF" stroke-width="5" stroke-linecap="round" stroke-miterlimit="10" x1="2074.14" y1="520.62" x2="2074.14" y2="552.6"/>
	
		<line fill="none" stroke="#FFFFFF" stroke-width="5" stroke-linecap="round" stroke-miterlimit="10" x1="2063.9" y1="517.13" x2="2063.9" y2="549.11"/>
	
		<line fill="none" stroke="#FFFFFF" stroke-width="5" stroke-linecap="round" stroke-miterlimit="10" x1="2023.35" y1="519.55" x2="2023.35" y2="551.52"/>
	
		<line fill="none" stroke="#FFFFFF" stroke-width="5" stroke-linecap="round" stroke-miterlimit="10" x1="2016.91" y1="526.49" x2="2016.91" y2="558.47"/>
	
		<line fill="none" stroke="#FFFFFF" stroke-width="5" stroke-linecap="round" stroke-miterlimit="10" x1="2008.95" y1="521.68" x2="2008.95" y2="553.66"/>
	
		<line fill="none" stroke="#FFFFFF" stroke-width="5" stroke-linecap="round" stroke-miterlimit="10" x1="1998.75" y1="527.56" x2="1998.75" y2="559.54"/>
	
		<line fill="none" stroke="#FFFFFF" stroke-width="5" stroke-linecap="round" stroke-miterlimit="10" x1="1988.82" y1="531.58" x2="1988.82" y2="563.56"/>
	
		<line fill="none" stroke="#FFFFFF" stroke-width="5" stroke-linecap="round" stroke-miterlimit="10" x1="1975.06" y1="525.68" x2="1975.06" y2="557.66"/>
	
		<line fill="none" stroke="#FFFFFF" stroke-width="5" stroke-linecap="round" stroke-miterlimit="10" x1="1964.41" y1="521.68" x2="1964.41" y2="553.66"/>
	
		<line fill="none" stroke="#FFFFFF" stroke-width="5" stroke-linecap="round" stroke-miterlimit="10" x1="1944.94" y1="529.09" x2="1944.94" y2="561.07"/>
	
		<line fill="none" stroke="#FFFFFF" stroke-width="5" stroke-linecap="round" stroke-miterlimit="10" x1="1936.69" y1="526.49" x2="1936.69" y2="558.47"/>
	
		<line fill="none" stroke="#FFFFFF" stroke-width="5" stroke-linecap="round" stroke-miterlimit="10" x1="1926.13" y1="533.12" x2="1926.13" y2="565.1"/>
	
		<line fill="none" stroke="#FFFFFF" stroke-width="5" stroke-linecap="round" stroke-miterlimit="10" x1="1914.23" y1="529.09" x2="1914.23" y2="561.07"/>
	
		<line fill="none" stroke="#FFFFFF" stroke-width="5" stroke-linecap="round" stroke-miterlimit="10" x1="1894.46" y1="536.61" x2="1894.46" y2="568.59"/>
	
		<line fill="none" stroke="#FFFFFF" stroke-width="5" stroke-linecap="round" stroke-miterlimit="10" x1="1882.94" y1="538.53" x2="1882.94" y2="570.51"/>
	
		<line fill="none" stroke="#FFFFFF" stroke-width="5" stroke-linecap="round" stroke-miterlimit="10" x1="1874.69" y1="535.54" x2="1874.69" y2="567.51"/>
	
		<line fill="none" stroke="#FFFFFF" stroke-width="5" stroke-linecap="round" stroke-miterlimit="10" x1="1865.28" y1="541.67" x2="1865.28" y2="573.65"/>
	
		<line fill="none" stroke="#FFFFFF" stroke-width="5" stroke-linecap="round" stroke-miterlimit="10" x1="1847.81" y1="539.37" x2="1847.81" y2="571.35"/>
	
		<line fill="none" stroke="#FFFFFF" stroke-width="5" stroke-linecap="round" stroke-miterlimit="10" x1="1590.63" y1="576.71" x2="1590.63" y2="608.69"/>
	
		<line fill="none" stroke="#FFFFFF" stroke-width="5" stroke-linecap="round" stroke-miterlimit="10" x1="1580.6" y1="582.82" x2="1580.6" y2="614.8"/>
	
		<line fill="none" stroke="#FFFFFF" stroke-width="5" stroke-linecap="round" stroke-miterlimit="10" x1="1559.14" y1="586.79" x2="1559.14" y2="618.77"/>
	
		<line fill="none" stroke="#FFFFFF" stroke-width="5" stroke-linecap="round" stroke-miterlimit="10" x1="1546.73" y1="585.12" x2="1546.73" y2="617.1"/>
	
		<line fill="none" stroke="#FFFFFF" stroke-width="5" stroke-linecap="round" stroke-miterlimit="10" x1="1537.4" y1="592.7" x2="1537.4" y2="624.68"/>
	
		<line fill="none" stroke="#FFFFFF" stroke-width="5" stroke-linecap="round" stroke-miterlimit="10" x1="1525.7" y1="591.03" x2="1525.7" y2="623.01"/>
	
		<line fill="none" stroke="#FFFFFF" stroke-width="5" stroke-linecap="round" stroke-miterlimit="10" x1="1515.94" y1="596.32" x2="1515.94" y2="628.3"/>
	<polygon fill="#FFFFFF" points="2041.81,514.81 2035.95,540.6 2049.05,541.67 	"/>
	<polygon fill="#FFFFFF" points="2146.87,507.37 2140.74,531.58 2154.39,531.58 	"/>
	<polygon fill="#FFFFFF" points="2244.13,494.31 2238.83,521.68 2251.61,520.62 	"/>
	<polygon fill="#FFFFFF" points="1821.37,559.54 1818.59,540.6 1815.52,565.1 	"/>
	<polygon fill="#FFFFFF" points="1799.36,563.56 1792.67,543.55 1787.37,570.51 1779.57,571.35 1775.39,553.66 1770.77,574.81 
		1761.18,574.81 1757.83,547.57 1755.05,577.08 1746.69,577.08 1741.11,561.07 1738.61,577.08 1726.34,578.75 1721.71,563.56 
		1719.51,579.86 1676.46,584.04 1672.56,565.1 1668.66,585.44 1656.4,585.44 1651.66,565.1 1646.92,588.07 1637.72,585.99 
		1634.1,568.59 1630.48,588.07 1615.27,588.07 1609.3,571.35 1604.28,590.45 1597.87,577.91 1595.92,590.45 1598.43,598.81 
		1721.71,598.81 1805.21,582.65 	"/>
</g>
<g id="Trees">
	<polygon fill="#FFFFFF" points="93.03,0 134.85,110.83 169.86,-1.01 191.26,-1.01 325.46,428.23 364.36,159 426.61,458.02 
		536.5,244.04 897.3,900 -130,900 -130,0 	"/>
	
		<line fill="none" stroke="#E8F0FE" stroke-width="5" stroke-linecap="round" stroke-linejoin="round" stroke-miterlimit="10" x1="177.8" y1="673.99" x2="177.8" y2="102.92"/>
	
		<line fill="none" stroke="#E8F0FE" stroke-width="5" stroke-linecap="round" stroke-linejoin="round" stroke-miterlimit="10" x1="177.8" y1="287.21" x2="123.37" y2="232.78"/>
	
		<line fill="none" stroke="#E8F0FE" stroke-width="5" stroke-linecap="round" stroke-linejoin="round" stroke-miterlimit="10" x1="177.8" y1="406.96" x2="257.12" y2="327.64"/>
	
		<line fill="none" stroke="#E8F0FE" stroke-width="5" stroke-linecap="round" stroke-linejoin="round" stroke-miterlimit="10" x1="177.8" y1="547.38" x2="86.14" y2="455.72"/>
	
		<line fill="none" stroke="#E8F0FE" stroke-width="5" stroke-linecap="round" stroke-linejoin="round" stroke-miterlimit="10" x1="366.5" y1="287.21" x2="366.5" y2="621.3"/>
	
		<line fill="none" stroke="#E8F0FE" stroke-width="5" stroke-linecap="round" stroke-linejoin="round" stroke-miterlimit="10" x1="366.5" y1="437.2" x2="401.97" y2="401.74"/>
	
		<line fill="none" stroke="#E8F0FE" stroke-width="5" stroke-linecap="round" stroke-linejoin="round" stroke-miterlimit="10" x1="366.5" y1="547.38" x2="331.16" y2="512.04"/>
	
		<polyline fill="none" stroke="#E8F0FE" stroke-width="5" stroke-linecap="round" stroke-linejoin="round" stroke-miterlimit="10" points="
		536.62,291.08 536.62,406.96 536.62,666.76 	"/>
	
		<line fill="none" stroke="#E8F0FE" stroke-width="5" stroke-linecap="round" stroke-linejoin="round" stroke-miterlimit="10" x1="576.66" y1="366.92" x2="536.62" y2="406.96"/>
	
		<line fill="none" stroke="#E8F0FE" stroke-width="5" stroke-linecap="round" stroke-linejoin="round" stroke-miterlimit="10" x1="536.62" y1="574.81" x2="453.39" y2="491.59"/>
	<polygon fill="#FFFFFF" points="3819.59,0.17 3758.05,244.04 3697.58,129.77 3614.44,431.73 3531.3,287.21 3480.55,402.55 
		3423.33,29.65 3354.22,517.7 3266.76,230.8 3193.34,533.12 3114.52,402.94 2943.92,900 4000,900 4000,0 	"/>
	
		<line fill="none" stroke="#E8F0FE" stroke-width="5" stroke-linecap="round" stroke-linejoin="round" stroke-miterlimit="10" x1="3118.84" y1="480.99" x2="3118.84" y2="732.57"/>
	
		<line fill="none" stroke="#E8F0FE" stroke-width="5" stroke-linecap="round" stroke-linejoin="round" stroke-miterlimit="10" x1="3156.63" y1="542.53" x2="3121.6" y2="577.57"/>
	
		<line fill="none" stroke="#E8F0FE" stroke-width="5" stroke-linecap="round" stroke-linejoin="round" stroke-miterlimit="10" x1="3065.93" y1="631.07" x2="3118.84" y2="683.98"/>
	
		<line fill="none" stroke="#E8F0FE" stroke-width="5" stroke-linecap="round" stroke-linejoin="round" stroke-miterlimit="10" x1="3267.84" y1="336.06" x2="3267.84" y2="657.53"/>
	
		<line fill="none" stroke="#E8F0FE" stroke-width="5" stroke-linecap="round" stroke-linejoin="round" stroke-miterlimit="10" x1="3301.32" y1="412.97" x2="3270" y2="444.28"/>
	
		<line fill="none" stroke="#E8F0FE" stroke-width="5" stroke-linecap="round" stroke-linejoin="round" stroke-miterlimit="10" x1="3222.49" y1="542.53" x2="3267.84" y2="587.88"/>
	
		<line fill="none" stroke="#E8F0FE" stroke-width="5" stroke-linecap="round" stroke-linejoin="round" stroke-miterlimit="10" x1="3425.49" y1="162.25" x2="3425.49" y2="587.88"/>
	
		<line fill="none" stroke="#E8F0FE" stroke-width="5" stroke-linecap="round" stroke-linejoin="round" stroke-miterlimit="10" x1="3449.24" y1="303.91" x2="3425.49" y2="327.67"/>
	
		<line fill="none" stroke="#E8F0FE" stroke-width="5" stroke-linecap="round" stroke-linejoin="round" stroke-miterlimit="10" x1="3383.38" y1="465.87" x2="3425.49" y2="507.98"/>
	
		<line fill="none" stroke="#E8F0FE" stroke-width="5" stroke-linecap="round" stroke-linejoin="round" stroke-miterlimit="10" x1="3532.85" y1="357.75" x2="3532.85" y2="619.61"/>
	
		<line fill="none" stroke="#E8F0FE" stroke-width="5" stroke-linecap="round" stroke-linejoin="round" stroke-miterlimit="10" x1="3573.95" y1="418.99" x2="3532.85" y2="460.1"/>
	
		<line fill="none" stroke="#E8F0FE" stroke-width="5" stroke-linecap="round" stroke-linejoin="round" stroke-miterlimit="10" x1="3491.75" y1="519.79" x2="3535.01" y2="563.05"/>
	
		<line fill="none" stroke="#E8F0FE" stroke-width="5" stroke-linecap="round" stroke-linejoin="round" stroke-miterlimit="10" x1="3703.48" y1="216.39" x2="3703.48" y2="447.05"/>
	
		<line fill="none" stroke="#E8F0FE" stroke-width="5" stroke-linecap="round" stroke-linejoin="round" stroke-miterlimit="10" x1="3743.79" y1="318.92" x2="3704.22" y2="358.49"/>
	
		<line fill="none" stroke="#E8F0FE" stroke-width="5" stroke-linecap="round" stroke-linejoin="round" stroke-miterlimit="10" x1="3656.71" y1="396.58" x2="3703.48" y2="443.35"/>
	<g>
		<path fill="#FFFFFF" d="M855.36,686.44c0,0,28.04-1.48,95.17,54.23c0,0-1.56-8.2,5.69-15.46c0,0,3.45,2.07,4.84,6.63
			c0,0,4.42-22.24,18.1-31.5c0,0,6.35,21.97,2.49,38.96c0,0,5.39-9.12,17.41-14.09c0,0,5.8,12.7,1.52,25.83
			c0,0,5.25-8.97,16.72-11.46c0,0,2.21,11.91-5.94,24.33c0,0,14.09-7.34,27.77-6.23c0,0-10.08-17.82-2.35-45.17
			c0,0,18.1,7.32,26.8,37.02c0,0,4.14-9.53,20.45-12.99c0,0,4.84,6.22,4.84,19.34c0,0,6.77-30.39,22.79-40.75
			c0,0,7.32,9.26,7.32,22.38c0,0-1.24-10.64,11.33-19.62c0,0,15.46,13.73,11.42,43.07l-8.1,107.36H738.57L855.36,686.44z"/>
		<circle fill="#FFFFFF" cx="952.08" cy="625.07" r="6.3"/>
		<g>
			<path fill="none" stroke="#FFFFFF" stroke-width="5" stroke-miterlimit="10" d="M894.85,701.2c0,0,17.61-51.69,57.23-76.13"/>
			<line fill="none" stroke="#FFFFFF" stroke-width="5" stroke-miterlimit="10" x1="925.18" y1="648.72" x2="921.16" y2="629.7"/>
			<line fill="none" stroke="#FFFFFF" stroke-width="5" stroke-miterlimit="10" x1="910.41" y1="669.28" x2="928.2" y2="669.28"/>
			<g>
				<path fill="none" stroke="#FFFFFF" stroke-width="5" stroke-miterlimit="10" d="M1061.78,754.61c0,0,3.14-43.17,24.14-68.17"/>
				<circle fill="#FFFFFF" cx="955.62" cy="683.55" r="6.3"/>
				<circle fill="#FFFFFF" cx="1085.92" cy="686.81" r="6.3"/>
				<path fill="none" stroke="#FFFFFF" stroke-width="5" stroke-miterlimit="10" d="M957.07,688.42c0,0,10.78,34.95,7.48,55.65"/>
				
					<line fill="none" stroke="#FFFFFF" stroke-width="5" stroke-miterlimit="10" x1="1073.21" y1="707.82" x2="1063.96" y2="688.42"/>
				
					<line fill="none" stroke="#FFFFFF" stroke-width="5" stroke-miterlimit="10" x1="1066.86" y1="726.48" x2="1082.54" y2="722.75"/>
				<line fill="none" stroke="#FFFFFF" stroke-width="5" stroke-miterlimit="10" x1="949.07" y1="706.5" x2="962.18" y2="709.13"/>
				<line fill="none" stroke="#FFFFFF" stroke-width="5" stroke-miterlimit="10" x1="961.12" y1="699.03" x2="968.92" y2="691.23"/>
			</g>
		</g>
	</g>
</g>
<g id="Airplane">
	<path fill="#8AB4F7" d="M1778.87,101.77l-5.56,1.41c-2.33,0.59-3.51,3.18-2.44,5.33l17.14,34.14l32.7-8.3l-36.81-31.4
		C1782.52,101.76,1780.64,101.32,1778.87,101.77z"/>
	<path fill="#FFFFFF" d="M1788.02,142.65l-17.14-34.14c-1.08-2.15,0.11-4.74,2.44-5.33l1-0.25l19.24,38.32L1788.02,142.65z"/>
	<path fill="#FFFFFF" d="M1858.1,142.84l-114.85,28.57l-4.56-18.33l114.85-28.57c5.06-1.26,10.18,1.82,11.44,6.88v0
		C1866.25,136.46,1863.17,141.58,1858.1,142.84z"/>
	<path fill="#FFFFFF" d="M1740.55,137.8L1740.55,137.8c-2.94,0.73-4.73,3.71-4,6.64l4.43,17.8l19.4-4.83l-14.24-17.73
		C1744.81,138.02,1742.62,137.28,1740.55,137.8z"/>
	<path fill="#8AB4F7" d="M1743.39,171.96l114.85-28.57c4.33-1.08,7.2-4.98,7.16-9.25l-123.75,30.79L1743.39,171.96z"/>
	<path fill="#8AB4F7" d="M1801.21,200.73l-5.57,1.38c-2.33,0.58-4.6-1.15-4.66-3.55l-1.01-38.19l32.75-8.12l-17.63,45.06
		C1804.43,199.02,1802.98,200.29,1801.21,200.73z"/>
	<path fill="#FFFFFF" d="M1789.97,160.38l1.01,38.19c0.06,2.4,2.33,4.13,4.66,3.55l1-0.25l-1.13-42.87L1789.97,160.38z"/>
	<polyline fill="none" stroke="#FFFFFF" stroke-width="5" stroke-linecap="round" stroke-miterlimit="10" points="1722.35,159 
		1033.46,321.13 1726.03,171.96 	"/>
</g>
<g id="People">
	<line fill="none" stroke="#AECBFA" stroke-width="5" stroke-miterlimit="10" x1="2720.25" y1="682.27" x2="2963.25" y2="682.27"/>
	<path fill="none" stroke="#F4AFB6" stroke-width="8" stroke-linecap="round" stroke-miterlimit="10" d="M2819.94,571.68
		c-1.89-5.36-2.08-10.9-0.85-16.04"/>
	<path fill="#56A55C" d="M2823.17,566.81c0.91,5.99,3.76,11.17,8.03,14.6c4.29,3.44,9.55,4.81,15.21,3.95l1.95,12.85
		c-1.73,0.26-3.45,0.39-5.15,0.39c-7.37,0-14.38-2.43-20.14-7.06c-6.82-5.48-11.35-13.57-12.75-22.79c-0.1-0.65-0.18-1.3-0.24-1.95"
		/>
	<rect x="2844.69" y="578.96" fill="#F4AFB6" width="13.16" height="10.42"/>
	<circle fill="#D95040" cx="2853.73" cy="569.67" r="13.99"/>
	<path fill="#56A55C" d="M2850.61,585.83h6.29c4.93,0,11.33,5.97,11.56,10.9l-0.73,33.07h-42.25l4.43-44.43"/>
	<path fill="#343659" d="M2830.71,629.79l-12.1,55h16.53l12.06-37.95l2.67,37.95h16.79c0,0,0.48-20.97,1.07-55H2830.71z"/>
	<rect x="2729.53" y="437.5" fill="#F4AFB6" width="19.36" height="28.82"/>
	<path fill="#F4AFB6" d="M2786.95,495.49c0,0,24.56,20.37,38.34,48.26c0,0,3.51,8.45-1.34,13.3c0,0-5.71,5.41-9.74,0
		c-4.03-5.41,0.67-11.96,0.67-11.96s-10.56-15.18-36.11-35.9L2786.95,495.49z"/>
	<path fill="#D95040" d="M2762.43,446.01l19.63,6.05c21.29,6.57,27.53-11.29,27.53-11.29c49.91,15.39,53.25-21.58,53.25-21.58
		c-10.49,16.29-27.62,6.84-49.25,0.17s-23.76,7.51-23.76,7.51c-6.91-2.68-14.35-5.67-19.94-10.7c-6.42-5.77-12.74-12.45-21.12-15.32
		c-8.53-2.92-18.71-1.14-25.11,5.43c-5.31,5.46-6.96,12.86-5.91,20.23c1.14,8.02,5.22,15.33,11.81,20.13
		C2743.93,457.12,2762.43,446.01,2762.43,446.01z"/>
	<path fill="#FFB900" d="M2768.46,581.66c5,23.78,15.44,62.44,39.63,103.13h-32.71c0,0-23.56-27.26-35.75-64.04
		c0,0,6.77,54.19,9.9,64.04H2720c0,0-32.68-67.14-12.53-146.37h57.77l-0.15,4.41C2764.66,555.87,2765.78,568.9,2768.46,581.66z"/>
	<path fill="#3388FF" d="M2765.24,549.6h-77.95l15.83-74.19l-23.58-23.58l17.68-17.68l25.1,21.17c0,0,41.04,8.3,64.62,40.17
		c0,0-5.46,12.88-19.21,26.63L2765.24,549.6z"/>
	<path fill="#4B4D75" d="M2767.15,535.38l-45.2-0.32c-4.19-0.03-7.57-3.45-7.54-7.65l0.46-64.26c0.03-4.19,3.45-7.57,7.65-7.54
		l45.2,0.32c4.19,0.03,7.57,3.45,7.54,7.65l-0.46,64.26C2774.77,532.03,2771.35,535.41,2767.15,535.38z"/>
	<path fill="#343757" d="M2736.73,535.16l-14.77-0.1c-4.19-0.03-7.57-3.45-7.54-7.65l0.46-64.26c0.03-4.19,3.45-7.57,7.65-7.54
		l6.72,0.05c4.19,0.03,7.57,3.45,7.54,7.65L2736.73,535.16z"/>
	<path fill="#F4AFB6" d="M2697.23,434.15l-75.45-69.74c-0.95-0.88-2.41-0.87-3.36,0.01l0,0c-0.96,0.89-1.05,2.38-0.22,3.39
		l7.77,9.36v2.5c0,2.98,1.14,5.85,3.19,8.02l55.69,58.85L2697.23,434.15z"/>
	<path fill="#FFA400" d="M2744.53,684.79c-5.95-25.98-14.87-74.24-8.04-109.35l4.91,0.96c-2.86,14.68-5.52,48.78,8.14,108.4H2744.53
		z"/>
	<path fill="#DA5040" d="M2733.1,553.92c-7.54,0-13.65-6.11-13.65-13.65c0-7.54,6.11-13.65,13.65-13.65h42.75
		c7.54,0,13.65,6.11,13.65,13.65c0,7.54-6.11,13.65-13.65,13.65H2733.1z"/>
	<circle fill="#B7332A" cx="2733.1" cy="540.27" r="13.65"/>
	<path fill="#4B4D75" d="M2754.12,455.83l20.19-0.06c4.19,0.03,7.57,3.45,7.54,7.65l-0.23,22.2c-0.03,4.19-3.45,7.57-7.65,7.54
		l-20.43-0.13"/>
	<path fill="none" stroke="#343757" stroke-width="5" stroke-miterlimit="10" d="M2775.03,495.49h-28.29
		c-6.86,0-12.42-5.56-12.42-12.42v-16.71"/>
	<circle fill="#DA5040" cx="2733.1" cy="540.27" r="7.03"/>
	<rect x="2752.11" y="493.16" fill="#343757" width="9.57" height="14.45"/>
	<path fill="#265BB6" d="M2861.72,622.15h-16.4c-2.39,0-4.33-1.94-4.33-4.33V596.7c0-6.92,5.61-12.53,12.53-12.53l0,0
		c6.92,0,2.59,0,7.44,0l5.08,33.66C2866.05,620.22,2864.11,622.15,2861.72,622.15z"/>
	<path fill="#4E86EC" d="M2868.78,622.15h-16.4c-2.39,0-4.33-1.94-4.33-4.33V596.7c0-6.92,5.61-12.53,12.53-12.53l0,0
		c6.92,0,12.53,5.61,12.53,12.53v21.13C2873.11,620.22,2871.17,622.15,2868.78,622.15z"/>
	<path fill="none" stroke="#265BB6" stroke-width="3.2474" stroke-miterlimit="10" d="M2852.71,603.72v-7
		c0-4.35,3.52-7.87,7.87-7.87l0,0c4.35,0,7.87,3.52,7.87,7.87v7"/>
	<circle fill="#D95040" cx="2863.4" cy="581.65" r="7.2"/>
</g>
<g id="Plant">
	<circle fill="#FFFFFF" cx="2950.69" cy="676.52" r="5.13"/>
	<path fill="none" stroke="#FFFFFF" stroke-width="5" stroke-miterlimit="10" d="M2915.95,740.92c0,0,0.24-34.33,34.74-64.4"/>
	<line fill="none" stroke="#FFFFFF" stroke-width="5" stroke-miterlimit="10" x1="2928.18" y1="701.84" x2="2943.92" y2="697.23"/>
	<line fill="none" stroke="#FFFFFF" stroke-width="5" stroke-miterlimit="10" x1="2922.95" y1="712.32" x2="2915.5" y2="700.31"/>
</g>
<g id="Mobile">
</g>
</svg>
